<mxfile host="app.diagrams.net" agent="Mozilla/5.0 (X11; Linux x86_64; rv:133.0) Gecko/20100101 Firefox/133.0" version="26.0.5">
  <diagram name="Page-1" id="u0_chyCNpCWHg9fmKVm3">
    <mxGraphModel dx="1195" dy="653" grid="1" gridSize="10" guides="1" tooltips="1" connect="1" arrows="1" fold="1" page="1" pageScale="1" pageWidth="850" pageHeight="1100" math="0" shadow="0">
      <root>
        <mxCell id="0" />
        <mxCell id="1" parent="0" />
        <mxCell id="_kqXRXGIQEDUTQmAEVrc-30" value="Надсистема" style="rounded=0;whiteSpace=wrap;html=1;fillColor=#d5e8d4;strokeColor=#82b366;verticalAlign=top;" vertex="1" parent="1">
          <mxGeometry x="90" y="200" width="600" height="160" as="geometry" />
        </mxCell>
        <mxCell id="_kqXRXGIQEDUTQmAEVrc-33" value="Создатель" style="rounded=0;whiteSpace=wrap;html=1;fillColor=#dae8fc;strokeColor=#6c8ebf;verticalAlign=top;" vertex="1" parent="1">
          <mxGeometry x="90" y="360" width="310" height="290" as="geometry" />
        </mxCell>
        <mxCell id="_kqXRXGIQEDUTQmAEVrc-34" value="Целевая система" style="rounded=0;whiteSpace=wrap;html=1;fillColor=#fff2cc;strokeColor=#d6b656;verticalAlign=top;" vertex="1" parent="1">
          <mxGeometry x="400" y="360" width="290" height="290" as="geometry" />
        </mxCell>
        <mxCell id="_kqXRXGIQEDUTQmAEVrc-62" value="" style="group" vertex="1" connectable="0" parent="1">
          <mxGeometry x="450" y="465" width="120" height="40" as="geometry" />
        </mxCell>
        <mxCell id="_kqXRXGIQEDUTQmAEVrc-175" value="Даёт" style="edgeStyle=orthogonalEdgeStyle;curved=1;rounded=0;orthogonalLoop=1;jettySize=auto;html=1;exitX=0.5;exitY=0;exitDx=0;exitDy=0;labelBackgroundColor=none;" edge="1" parent="_kqXRXGIQEDUTQmAEVrc-62" source="_kqXRXGIQEDUTQmAEVrc-63">
          <mxGeometry relative="1" as="geometry">
            <mxPoint x="140" y="-175" as="targetPoint" />
          </mxGeometry>
        </mxCell>
        <mxCell id="_kqXRXGIQEDUTQmAEVrc-63" value="Бот для приёма звонков" style="rounded=1;whiteSpace=wrap;html=1;" vertex="1" parent="_kqXRXGIQEDUTQmAEVrc-62">
          <mxGeometry width="110" height="40" as="geometry" />
        </mxCell>
        <mxCell id="_kqXRXGIQEDUTQmAEVrc-64" value="" style="strokeWidth=1;html=1;shape=mxgraph.flowchart.annotation_1;align=left;pointerEvents=1;" vertex="1" parent="_kqXRXGIQEDUTQmAEVrc-62">
          <mxGeometry x="110" width="10" height="40" as="geometry" />
        </mxCell>
        <mxCell id="_kqXRXGIQEDUTQmAEVrc-81" value="" style="group" vertex="1" connectable="0" parent="1">
          <mxGeometry x="420" y="390" width="80" height="40" as="geometry" />
        </mxCell>
        <mxCell id="_kqXRXGIQEDUTQmAEVrc-82" value="Разговор" style="rounded=1;whiteSpace=wrap;html=1;" vertex="1" parent="_kqXRXGIQEDUTQmAEVrc-81">
          <mxGeometry width="70" height="40" as="geometry" />
        </mxCell>
        <mxCell id="_kqXRXGIQEDUTQmAEVrc-83" value="" style="strokeWidth=1;html=1;shape=mxgraph.flowchart.annotation_1;align=left;pointerEvents=1;" vertex="1" parent="_kqXRXGIQEDUTQmAEVrc-81">
          <mxGeometry x="70" width="10" height="40" as="geometry" />
        </mxCell>
        <mxCell id="_kqXRXGIQEDUTQmAEVrc-84" value="" style="group" vertex="1" connectable="0" parent="1">
          <mxGeometry x="140" y="570" width="80" height="40" as="geometry" />
        </mxCell>
        <mxCell id="_kqXRXGIQEDUTQmAEVrc-192" value="Задаёт" style="edgeStyle=orthogonalEdgeStyle;curved=1;rounded=0;orthogonalLoop=1;jettySize=auto;html=1;exitX=0.5;exitY=0;exitDx=0;exitDy=0;labelBackgroundColor=none;" edge="1" parent="_kqXRXGIQEDUTQmAEVrc-84" source="_kqXRXGIQEDUTQmAEVrc-85">
          <mxGeometry relative="1" as="geometry">
            <mxPoint x="35" y="-20" as="targetPoint" />
          </mxGeometry>
        </mxCell>
        <mxCell id="_kqXRXGIQEDUTQmAEVrc-85" value="Стратегия" style="rounded=1;whiteSpace=wrap;html=1;" vertex="1" parent="_kqXRXGIQEDUTQmAEVrc-84">
          <mxGeometry width="70" height="40" as="geometry" />
        </mxCell>
        <mxCell id="_kqXRXGIQEDUTQmAEVrc-86" value="" style="strokeWidth=1;html=1;shape=mxgraph.flowchart.annotation_1;align=left;pointerEvents=1;" vertex="1" parent="_kqXRXGIQEDUTQmAEVrc-84">
          <mxGeometry x="70" width="10" height="40" as="geometry" />
        </mxCell>
        <mxCell id="_kqXRXGIQEDUTQmAEVrc-74" value="" style="group" vertex="1" connectable="0" parent="1">
          <mxGeometry x="365" y="250" width="120" height="40" as="geometry" />
        </mxCell>
        <mxCell id="_kqXRXGIQEDUTQmAEVrc-75" value="Службы работы с клиентами" style="rounded=1;whiteSpace=wrap;html=1;" vertex="1" parent="_kqXRXGIQEDUTQmAEVrc-74">
          <mxGeometry width="110" height="40" as="geometry" />
        </mxCell>
        <mxCell id="_kqXRXGIQEDUTQmAEVrc-76" value="" style="strokeWidth=1;html=1;shape=mxgraph.flowchart.annotation_1;align=left;pointerEvents=1;" vertex="1" parent="_kqXRXGIQEDUTQmAEVrc-74">
          <mxGeometry x="110" width="10" height="40" as="geometry" />
        </mxCell>
        <mxCell id="_kqXRXGIQEDUTQmAEVrc-90" value="" style="group" vertex="1" connectable="0" parent="1">
          <mxGeometry x="260" y="250" width="80" height="40" as="geometry" />
        </mxCell>
        <mxCell id="_kqXRXGIQEDUTQmAEVrc-91" value="Конечные собеседники" style="rounded=1;whiteSpace=wrap;html=1;" vertex="1" parent="_kqXRXGIQEDUTQmAEVrc-90">
          <mxGeometry width="70" height="40" as="geometry" />
        </mxCell>
        <mxCell id="_kqXRXGIQEDUTQmAEVrc-92" value="" style="strokeWidth=1;html=1;shape=mxgraph.flowchart.annotation_1;align=left;pointerEvents=1;" vertex="1" parent="_kqXRXGIQEDUTQmAEVrc-90">
          <mxGeometry x="70" width="10" height="40" as="geometry" />
        </mxCell>
        <mxCell id="_kqXRXGIQEDUTQmAEVrc-100" value="" style="group" vertex="1" connectable="0" parent="1">
          <mxGeometry x="510" y="250" width="120" height="40" as="geometry" />
        </mxCell>
        <mxCell id="_kqXRXGIQEDUTQmAEVrc-101" value="Коммерческая реализуемость" style="rounded=1;whiteSpace=wrap;html=1;" vertex="1" parent="_kqXRXGIQEDUTQmAEVrc-100">
          <mxGeometry width="110" height="40" as="geometry" />
        </mxCell>
        <mxCell id="_kqXRXGIQEDUTQmAEVrc-102" value="" style="strokeWidth=1;html=1;shape=mxgraph.flowchart.annotation_1;align=left;pointerEvents=1;" vertex="1" parent="_kqXRXGIQEDUTQmAEVrc-100">
          <mxGeometry x="110" width="10" height="40" as="geometry" />
        </mxCell>
        <mxCell id="_kqXRXGIQEDUTQmAEVrc-114" value="" style="group" vertex="1" connectable="0" parent="1">
          <mxGeometry x="540" y="390" width="80" height="40" as="geometry" />
        </mxCell>
        <mxCell id="_kqXRXGIQEDUTQmAEVrc-115" value="Скрипт" style="rounded=1;whiteSpace=wrap;html=1;" vertex="1" parent="_kqXRXGIQEDUTQmAEVrc-114">
          <mxGeometry width="70" height="40" as="geometry" />
        </mxCell>
        <mxCell id="_kqXRXGIQEDUTQmAEVrc-116" value="" style="strokeWidth=1;html=1;shape=mxgraph.flowchart.annotation_1;align=left;pointerEvents=1;" vertex="1" parent="_kqXRXGIQEDUTQmAEVrc-114">
          <mxGeometry x="70" width="10" height="40" as="geometry" />
        </mxCell>
        <mxCell id="_kqXRXGIQEDUTQmAEVrc-123" value="" style="group" vertex="1" connectable="0" parent="1">
          <mxGeometry x="260" y="430" width="120" height="40" as="geometry" />
        </mxCell>
        <mxCell id="_kqXRXGIQEDUTQmAEVrc-124" value="Разработчики и архитекторы" style="rounded=1;whiteSpace=wrap;html=1;" vertex="1" parent="_kqXRXGIQEDUTQmAEVrc-123">
          <mxGeometry width="110" height="40" as="geometry" />
        </mxCell>
        <mxCell id="_kqXRXGIQEDUTQmAEVrc-125" value="" style="strokeWidth=1;html=1;shape=mxgraph.flowchart.annotation_1;align=left;pointerEvents=1;" vertex="1" parent="_kqXRXGIQEDUTQmAEVrc-123">
          <mxGeometry x="110" width="10" height="40" as="geometry" />
        </mxCell>
        <mxCell id="_kqXRXGIQEDUTQmAEVrc-137" value="Реализует" style="edgeStyle=orthogonalEdgeStyle;curved=1;rounded=0;orthogonalLoop=1;jettySize=auto;html=1;exitX=0.5;exitY=0;exitDx=0;exitDy=0;entryX=0.5;entryY=1;entryDx=0;entryDy=0;labelBackgroundColor=none;" edge="1" parent="1" source="_kqXRXGIQEDUTQmAEVrc-63" target="_kqXRXGIQEDUTQmAEVrc-82">
          <mxGeometry relative="1" as="geometry" />
        </mxCell>
        <mxCell id="_kqXRXGIQEDUTQmAEVrc-141" value="" style="group" vertex="1" connectable="0" parent="1">
          <mxGeometry x="450" y="540" width="120" height="40" as="geometry" />
        </mxCell>
        <mxCell id="_kqXRXGIQEDUTQmAEVrc-142" value="Цифровой двойник" style="rounded=1;whiteSpace=wrap;html=1;" vertex="1" parent="_kqXRXGIQEDUTQmAEVrc-141">
          <mxGeometry width="110" height="40" as="geometry" />
        </mxCell>
        <mxCell id="_kqXRXGIQEDUTQmAEVrc-143" value="" style="strokeWidth=1;html=1;shape=mxgraph.flowchart.annotation_1;align=left;pointerEvents=1;" vertex="1" parent="_kqXRXGIQEDUTQmAEVrc-141">
          <mxGeometry x="110" width="10" height="40" as="geometry" />
        </mxCell>
        <mxCell id="_kqXRXGIQEDUTQmAEVrc-151" value="" style="group" vertex="1" connectable="0" parent="1">
          <mxGeometry x="470" y="600" width="80" height="40" as="geometry" />
        </mxCell>
        <mxCell id="_kqXRXGIQEDUTQmAEVrc-152" value="Поддержка, улучшение" style="rounded=1;whiteSpace=wrap;html=1;" vertex="1" parent="_kqXRXGIQEDUTQmAEVrc-151">
          <mxGeometry width="70" height="40" as="geometry" />
        </mxCell>
        <mxCell id="_kqXRXGIQEDUTQmAEVrc-153" value="" style="strokeWidth=1;html=1;shape=mxgraph.flowchart.annotation_1;align=left;pointerEvents=1;" vertex="1" parent="_kqXRXGIQEDUTQmAEVrc-151">
          <mxGeometry x="70" width="10" height="40" as="geometry" />
        </mxCell>
        <mxCell id="_kqXRXGIQEDUTQmAEVrc-154" value="Удовлетворяет" style="edgeStyle=orthogonalEdgeStyle;curved=1;rounded=0;orthogonalLoop=1;jettySize=auto;html=1;exitX=0.5;exitY=1;exitDx=0;exitDy=0;entryX=0.5;entryY=0;entryDx=0;entryDy=0;labelBackgroundColor=none;" edge="1" parent="1" source="_kqXRXGIQEDUTQmAEVrc-63" target="_kqXRXGIQEDUTQmAEVrc-142">
          <mxGeometry relative="1" as="geometry" />
        </mxCell>
        <mxCell id="_kqXRXGIQEDUTQmAEVrc-158" style="edgeStyle=orthogonalEdgeStyle;curved=1;rounded=0;orthogonalLoop=1;jettySize=auto;html=1;exitX=1;exitY=0.5;exitDx=0;exitDy=0;entryX=1;entryY=0.5;entryDx=0;entryDy=0;entryPerimeter=0;" edge="1" parent="1" source="_kqXRXGIQEDUTQmAEVrc-152" target="_kqXRXGIQEDUTQmAEVrc-64">
          <mxGeometry relative="1" as="geometry" />
        </mxCell>
        <mxCell id="_kqXRXGIQEDUTQmAEVrc-159" value="Задаёт" style="edgeStyle=orthogonalEdgeStyle;curved=1;rounded=0;orthogonalLoop=1;jettySize=auto;html=1;exitX=0.5;exitY=1;exitDx=0;exitDy=0;entryX=0.5;entryY=0;entryDx=0;entryDy=0;labelBackgroundColor=none;" edge="1" parent="1" source="_kqXRXGIQEDUTQmAEVrc-142" target="_kqXRXGIQEDUTQmAEVrc-152">
          <mxGeometry relative="1" as="geometry" />
        </mxCell>
        <mxCell id="_kqXRXGIQEDUTQmAEVrc-162" value="" style="group" vertex="1" connectable="0" parent="1">
          <mxGeometry x="260" y="510" width="120" height="40" as="geometry" />
        </mxCell>
        <mxCell id="_kqXRXGIQEDUTQmAEVrc-163" value="Работы создания бота" style="rounded=1;whiteSpace=wrap;html=1;" vertex="1" parent="_kqXRXGIQEDUTQmAEVrc-162">
          <mxGeometry width="110" height="40" as="geometry" />
        </mxCell>
        <mxCell id="_kqXRXGIQEDUTQmAEVrc-164" value="" style="strokeWidth=1;html=1;shape=mxgraph.flowchart.annotation_1;align=left;pointerEvents=1;" vertex="1" parent="_kqXRXGIQEDUTQmAEVrc-162">
          <mxGeometry x="110" width="10" height="40" as="geometry" />
        </mxCell>
        <mxCell id="_kqXRXGIQEDUTQmAEVrc-167" value="Планируют и выполняют" style="edgeStyle=orthogonalEdgeStyle;curved=1;rounded=0;orthogonalLoop=1;jettySize=auto;html=1;exitX=0.5;exitY=1;exitDx=0;exitDy=0;entryX=0.5;entryY=0;entryDx=0;entryDy=0;labelBackgroundColor=none;" edge="1" parent="1" source="_kqXRXGIQEDUTQmAEVrc-124" target="_kqXRXGIQEDUTQmAEVrc-163">
          <mxGeometry relative="1" as="geometry" />
        </mxCell>
        <mxCell id="_kqXRXGIQEDUTQmAEVrc-169" value="Звонят" style="edgeStyle=orthogonalEdgeStyle;curved=1;rounded=0;orthogonalLoop=1;jettySize=auto;html=1;exitX=0.75;exitY=0;exitDx=0;exitDy=0;entryX=0.5;entryY=0;entryDx=0;entryDy=0;labelBackgroundColor=none;" edge="1" parent="1" source="_kqXRXGIQEDUTQmAEVrc-91" target="_kqXRXGIQEDUTQmAEVrc-75">
          <mxGeometry relative="1" as="geometry" />
        </mxCell>
        <mxCell id="_kqXRXGIQEDUTQmAEVrc-170" value="Создаёт" style="edgeStyle=orthogonalEdgeStyle;curved=1;rounded=0;orthogonalLoop=1;jettySize=auto;html=1;exitX=0.75;exitY=1;exitDx=0;exitDy=0;entryX=1;entryY=0.5;entryDx=0;entryDy=0;labelBackgroundColor=none;" edge="1" parent="1" source="_kqXRXGIQEDUTQmAEVrc-75" target="_kqXRXGIQEDUTQmAEVrc-115">
          <mxGeometry relative="1" as="geometry" />
        </mxCell>
        <mxCell id="_kqXRXGIQEDUTQmAEVrc-171" value="Использует" style="edgeStyle=orthogonalEdgeStyle;curved=1;rounded=0;orthogonalLoop=1;jettySize=auto;html=1;exitX=0.75;exitY=0;exitDx=0;exitDy=0;entryX=0.5;entryY=1;entryDx=0;entryDy=0;labelBackgroundColor=none;" edge="1" parent="1" source="_kqXRXGIQEDUTQmAEVrc-63" target="_kqXRXGIQEDUTQmAEVrc-115">
          <mxGeometry relative="1" as="geometry" />
        </mxCell>
        <mxCell id="_kqXRXGIQEDUTQmAEVrc-172" value="Использует" style="edgeStyle=orthogonalEdgeStyle;curved=1;rounded=0;orthogonalLoop=1;jettySize=auto;html=1;exitX=0.75;exitY=1;exitDx=0;exitDy=0;entryX=0.5;entryY=0;entryDx=0;entryDy=0;labelBackgroundColor=none;" edge="1" parent="1" source="_kqXRXGIQEDUTQmAEVrc-91" target="_kqXRXGIQEDUTQmAEVrc-82">
          <mxGeometry relative="1" as="geometry" />
        </mxCell>
        <mxCell id="_kqXRXGIQEDUTQmAEVrc-173" value="Создаёт" style="edgeStyle=orthogonalEdgeStyle;curved=1;rounded=0;orthogonalLoop=1;jettySize=auto;html=1;exitX=0.75;exitY=0;exitDx=0;exitDy=0;entryX=0.5;entryY=0;entryDx=0;entryDy=0;labelBackgroundColor=none;" edge="1" parent="1" source="_kqXRXGIQEDUTQmAEVrc-75" target="_kqXRXGIQEDUTQmAEVrc-101">
          <mxGeometry relative="1" as="geometry" />
        </mxCell>
        <mxCell id="_kqXRXGIQEDUTQmAEVrc-174" value="Фокусирует" style="edgeStyle=orthogonalEdgeStyle;curved=1;rounded=0;orthogonalLoop=1;jettySize=auto;html=1;exitX=1;exitY=0.5;exitDx=0;exitDy=0;entryX=1;entryY=0.5;entryDx=0;entryDy=0;entryPerimeter=0;labelBackgroundColor=none;" edge="1" parent="1" source="_kqXRXGIQEDUTQmAEVrc-101" target="_kqXRXGIQEDUTQmAEVrc-143">
          <mxGeometry relative="1" as="geometry" />
        </mxCell>
        <mxCell id="_kqXRXGIQEDUTQmAEVrc-176" value="Создают" style="edgeStyle=orthogonalEdgeStyle;curved=1;rounded=0;orthogonalLoop=1;jettySize=auto;html=1;exitX=1;exitY=0.5;exitDx=0;exitDy=0;entryX=0;entryY=0.5;entryDx=0;entryDy=0;labelBackgroundColor=none;" edge="1" parent="1" source="_kqXRXGIQEDUTQmAEVrc-163" target="_kqXRXGIQEDUTQmAEVrc-142">
          <mxGeometry relative="1" as="geometry" />
        </mxCell>
        <mxCell id="_kqXRXGIQEDUTQmAEVrc-178" value="Создают" style="edgeStyle=orthogonalEdgeStyle;curved=1;rounded=0;orthogonalLoop=1;jettySize=auto;html=1;exitX=1;exitY=0.5;exitDx=0;exitDy=0;entryX=0;entryY=0.5;entryDx=0;entryDy=0;labelBackgroundColor=none;" edge="1" parent="1" source="_kqXRXGIQEDUTQmAEVrc-163" target="_kqXRXGIQEDUTQmAEVrc-63">
          <mxGeometry relative="1" as="geometry" />
        </mxCell>
        <mxCell id="_kqXRXGIQEDUTQmAEVrc-179" value="" style="group" vertex="1" connectable="0" parent="1">
          <mxGeometry x="260" y="570" width="120" height="40" as="geometry" />
        </mxCell>
        <mxCell id="_kqXRXGIQEDUTQmAEVrc-180" value="Оргмодель команды" style="rounded=1;whiteSpace=wrap;html=1;" vertex="1" parent="_kqXRXGIQEDUTQmAEVrc-179">
          <mxGeometry width="110" height="40" as="geometry" />
        </mxCell>
        <mxCell id="_kqXRXGIQEDUTQmAEVrc-181" value="" style="strokeWidth=1;html=1;shape=mxgraph.flowchart.annotation_1;align=left;pointerEvents=1;" vertex="1" parent="_kqXRXGIQEDUTQmAEVrc-179">
          <mxGeometry x="110" width="10" height="40" as="geometry" />
        </mxCell>
        <mxCell id="_kqXRXGIQEDUTQmAEVrc-182" value="" style="group" vertex="1" connectable="0" parent="1">
          <mxGeometry x="140" y="510" width="80" height="40" as="geometry" />
        </mxCell>
        <mxCell id="_kqXRXGIQEDUTQmAEVrc-183" value="&lt;div&gt;Стратегиро&lt;/div&gt;&lt;div&gt;вание&lt;/div&gt;" style="rounded=1;whiteSpace=wrap;html=1;" vertex="1" parent="_kqXRXGIQEDUTQmAEVrc-182">
          <mxGeometry width="70" height="40" as="geometry" />
        </mxCell>
        <mxCell id="_kqXRXGIQEDUTQmAEVrc-184" value="" style="strokeWidth=1;html=1;shape=mxgraph.flowchart.annotation_1;align=left;pointerEvents=1;" vertex="1" parent="_kqXRXGIQEDUTQmAEVrc-182">
          <mxGeometry x="70" width="10" height="40" as="geometry" />
        </mxCell>
        <mxCell id="_kqXRXGIQEDUTQmAEVrc-185" value="" style="group" vertex="1" connectable="0" parent="1">
          <mxGeometry x="140" y="430" width="80" height="40" as="geometry" />
        </mxCell>
        <mxCell id="_kqXRXGIQEDUTQmAEVrc-186" value="&lt;div&gt;Организа&lt;/div&gt;&lt;div&gt;тор&lt;/div&gt;" style="rounded=1;whiteSpace=wrap;html=1;" vertex="1" parent="_kqXRXGIQEDUTQmAEVrc-185">
          <mxGeometry width="70" height="40" as="geometry" />
        </mxCell>
        <mxCell id="_kqXRXGIQEDUTQmAEVrc-187" value="" style="strokeWidth=1;html=1;shape=mxgraph.flowchart.annotation_1;align=left;pointerEvents=1;" vertex="1" parent="_kqXRXGIQEDUTQmAEVrc-185">
          <mxGeometry x="70" width="10" height="40" as="geometry" />
        </mxCell>
        <mxCell id="_kqXRXGIQEDUTQmAEVrc-188" value="Выполняет" style="edgeStyle=orthogonalEdgeStyle;curved=1;rounded=0;orthogonalLoop=1;jettySize=auto;html=1;exitX=0.5;exitY=1;exitDx=0;exitDy=0;entryX=0.5;entryY=0;entryDx=0;entryDy=0;labelBackgroundColor=none;" edge="1" parent="1" source="_kqXRXGIQEDUTQmAEVrc-186" target="_kqXRXGIQEDUTQmAEVrc-183">
          <mxGeometry relative="1" as="geometry" />
        </mxCell>
        <mxCell id="_kqXRXGIQEDUTQmAEVrc-191" value="Создаёт и&lt;br&gt;применяет" style="edgeStyle=orthogonalEdgeStyle;curved=1;rounded=0;orthogonalLoop=1;jettySize=auto;html=1;exitX=0;exitY=0.5;exitDx=0;exitDy=0;entryX=0;entryY=0.5;entryDx=0;entryDy=0;labelBackgroundColor=none;" edge="1" parent="1" source="_kqXRXGIQEDUTQmAEVrc-186" target="_kqXRXGIQEDUTQmAEVrc-85">
          <mxGeometry relative="1" as="geometry" />
        </mxCell>
        <mxCell id="_kqXRXGIQEDUTQmAEVrc-194" value="Создаёт" style="edgeStyle=orthogonalEdgeStyle;curved=1;rounded=0;orthogonalLoop=1;jettySize=auto;html=1;exitX=1;exitY=0.5;exitDx=0;exitDy=0;entryX=0;entryY=0.5;entryDx=0;entryDy=0;labelBackgroundColor=none;" edge="1" parent="1" source="_kqXRXGIQEDUTQmAEVrc-183" target="_kqXRXGIQEDUTQmAEVrc-124">
          <mxGeometry relative="1" as="geometry" />
        </mxCell>
        <mxCell id="_kqXRXGIQEDUTQmAEVrc-195" value="Создаёт" style="edgeStyle=orthogonalEdgeStyle;curved=1;rounded=0;orthogonalLoop=1;jettySize=auto;html=1;exitX=1;exitY=0.5;exitDx=0;exitDy=0;entryX=0;entryY=0.5;entryDx=0;entryDy=0;labelBackgroundColor=none;" edge="1" parent="1" source="_kqXRXGIQEDUTQmAEVrc-183" target="_kqXRXGIQEDUTQmAEVrc-180">
          <mxGeometry relative="1" as="geometry" />
        </mxCell>
        <mxCell id="_kqXRXGIQEDUTQmAEVrc-196" value="Использует" style="edgeStyle=orthogonalEdgeStyle;curved=1;rounded=0;orthogonalLoop=1;jettySize=auto;html=1;exitX=0.5;exitY=0;exitDx=0;exitDy=0;entryX=0.25;entryY=1;entryDx=0;entryDy=0;labelBackgroundColor=none;" edge="1" parent="1" source="_kqXRXGIQEDUTQmAEVrc-186" target="_kqXRXGIQEDUTQmAEVrc-101">
          <mxGeometry relative="1" as="geometry" />
        </mxCell>
      </root>
    </mxGraphModel>
  </diagram>
</mxfile>
